Coordinates
version=1
nRows=13
nColumns=40
inDegrees=yes

Units are S.I. units (second, meters, Newtons, ...)
Angles are in degrees.

endheader
time	pelvis_tilt	pelvis_list	pelvis_rotation	pelvis_tx	pelvis_ty	pelvis_tz	hip_flexion_r	hip_adduction_r	hip_rotation_r	knee_angle_r	knee_angle_r_beta	ankle_angle_r	subtalar_angle_r	mtp_angle_r	hip_flexion_l	hip_adduction_l	hip_rotation_l	knee_angle_l	knee_angle_l_beta	ankle_angle_l	subtalar_angle_l	mtp_angle_l	lumbar_extension	lumbar_bending	lumbar_rotation	arm_flex_r	arm_add_r	arm_rot_r	elbow_flex_r	pro_sup_r	wrist_flex_r	wrist_dev_r	arm_flex_l	arm_add_l	arm_rot_l	elbow_flex_l	pro_sup_l	wrist_flex_l	wrist_dev_l
      1.31000000	     -1.82530388	     -1.61657687	      3.25621251	     -0.01432538	      0.89267865	      1.03102169	     25.12103468	     -3.33641398	    -14.02926528	    -44.98588566	     -0.78515182	      4.94009761	    -15.08774365	     18.58998220	      7.90075577	      0.33385113	     10.75504376	    -27.30256606	     -0.47651967	     14.04372212	      4.84024629	     -2.06377081	     -4.46453842	      1.38499401	     -7.56840301	     -2.51176536	     -7.56095505	    -16.03707605	     26.90468709	     89.95437384	      0.00000000	      0.00000000	      4.30167983	     11.64273251	     16.54294148	     38.58996584	     89.95437384	      0.00000000	      0.00000000
      1.32000000	     -2.16835373	     -1.34545945	      3.28585498	     -0.00828638	      0.89169067	      1.03069232	     25.79642825	     -3.69330446	    -14.37927590	    -42.86883720	     -0.74820236	      4.77629268	    -14.49816589	     18.36167582	      7.80096842	      0.04602700	     10.99160605	    -27.27885878	     -0.47610590	     14.14806470	      4.68251540	     -2.10896279	     -4.14472464	      1.08536968	     -7.60882051	     -2.72397161	     -7.50158409	    -16.00756137	     26.92978166	     89.95437384	      0.00000000	      0.00000000	      4.49006086	     11.71230171	     16.34198014	     39.11179595	     89.95437384	      0.00000000	      0.00000000
      1.33000000	     -2.00530485	     -1.60114445	      3.55312105	     -0.00200547	      0.89165291	      1.03050893	     25.61778695	     -3.46307011	    -15.13826181	    -40.27411476	     -0.70291591	      4.45042940	    -13.87598403	     18.24640278	      7.14167617	      0.38516796	     10.78994614	    -27.19102430	     -0.47457290	     14.36706695	      4.34943935	     -2.33735085	     -4.38262694	      1.38914591	     -7.86467718	     -2.64093203	     -7.41576188	    -16.22455844	     26.59005557	     89.95437384	      0.00000000	      0.00000000	      4.62956931	     11.86797848	     15.76840225	     39.80153979	     89.95437384	      0.00000000	      0.00000000
      1.34000000	     -2.18357323	     -1.49100871	      3.63501127	      0.00412878	      0.89095733	      1.03038245	     25.96571189	     -3.60886768	    -15.64971299	    -38.02426292	     -0.66364858	      4.39114314	    -13.39861579	     18.06118574	      6.86168644	      0.28315486	     10.80151870	    -27.14989542	     -0.47385507	     14.45483449	      4.08395542	     -2.49116075	     -4.24850481	      1.27135912	     -7.93166931	     -2.75170513	     -7.34794120	    -16.26428686	     26.46203073	     89.95437384	      0.00000000	      0.00000000	      4.74483194	     11.96652723	     15.42171862	     40.47053667	     89.95437384	      0.00000000	      0.00000000
      1.35000000	     -2.37694128	     -1.38094424	      3.75283176	      0.01031720	      0.89020698	      1.03020400	     26.34324419	     -3.78306429	    -16.22541758	    -35.91336886	     -0.62680653	      4.47766631	    -12.95874966	     17.88411739	      6.59543768	      0.20137770	     10.89639249	    -27.11492804	     -0.47324477	     14.51581663	      3.93882650	     -2.60390690	     -4.08619600	      1.15867066	     -8.03598232	     -2.87449512	     -7.29295343	    -16.29446734	     26.36133094	     89.95437384	      0.00000000	      0.00000000	      4.91252924	     12.03671770	     15.12724951	     41.01950266	     89.95437384	      0.00000000	      0.00000000
      1.36000000	     -2.25708260	     -1.50933262	      3.98330228	      0.01681210	      0.88995356	      1.03011952	     26.24416273	     -3.70267317	    -17.12487764	    -33.71118615	     -0.58837119	      4.55796850	    -12.62089225	     17.67372544	      6.00654043	      0.43722828	     10.90070513	    -27.11373528	     -0.47322395	     14.67121868	      3.51956534	     -2.94365480	     -4.25204755	      1.32838459	     -8.19355344	     -2.91859752	     -7.22634941	    -16.49121865	     26.14933912	     89.95437384	      0.00000000	      0.00000000	      5.07226660	     12.03291285	     14.88539540	     41.64732605	     89.95437384	      0.00000000	      0.00000000
      1.37000000	     -2.55358252	     -1.23312972	      3.91045090	      0.02313972	      0.88890239	      1.03018834	     26.91491751	     -4.03243783	    -17.73212601	    -32.15983882	     -0.56129507	      4.73713825	    -12.43481093	     17.53391029	      5.82658756	      0.15852887	     11.11949205	    -27.10128794	     -0.47300671	     14.76134466	      3.45399006	     -2.98222144	     -3.94836531	      1.03024258	     -8.07236253	     -3.10825220	     -7.18894279	    -16.46352715	     26.06036147	     89.95437384	      0.00000000	      0.00000000	      5.26335834	     11.97835037	     14.82428821	     42.08228432	     89.95437384	      0.00000000	      0.00000000
      1.38000000	     -2.48692749	     -1.50116233	      4.20499143	      0.02960095	      0.88865859	      1.03037021	     26.84151431	     -3.75943247	    -18.57882187	    -30.09410422	     -0.52524120	      4.63095324	    -11.78221038	     17.28359864	      5.37005197	      0.57316115	     10.93229994	    -27.20760631	     -0.47486231	     14.91212653	      3.15131194	     -3.32299484	     -4.05134552	      1.33302898	     -8.36028832	     -3.06572725	     -7.10307789	    -16.65794470	     25.79709697	     89.95437384	      0.00000000	      0.00000000	      5.37756448	     11.98618265	     14.67803890	     42.66441240	     89.95437384	      0.00000000	      0.00000000
      1.39000000	     -2.73892441	     -1.24911868	      4.12820222	      0.03595628	      0.88772631	      1.03067883	     27.48734987	     -4.01238820	    -19.19915696	    -28.80225785	     -0.50269423	      4.76828164	    -11.56029096	     17.12862796	      5.17581200	      0.35734753	     11.10453147	    -27.24401296	     -0.47549773	     14.93994079	      3.08746228	     -3.35556147	     -3.84076636	      1.06154764	     -8.17082375	     -3.25968319	     -7.07419961	    -16.60607135	     25.73284476	     89.95437384	      0.00000000	      0.00000000	      5.57304241	     11.92264478	     14.58211330	     43.10957490	     89.95437384	      0.00000000	      0.00000000
      1.40000000	     -2.51425118	     -1.53647736	      4.34689075	      0.04293992	      0.88768249	      1.03100980	     27.11949070	     -3.66167746	    -20.21517711	    -26.77850872	     -0.46737315	      4.20626676	    -10.69195700	     14.92982052	      4.49505857	      0.91060548	     11.34460422	    -27.28731604	     -0.47625351	     14.54555349	      2.52913681	     -6.69743739	     -4.05129110	      1.40754475	     -8.37489997	     -3.28859310	     -7.04469920	    -16.63200723	     25.54038332	     89.95437384	      0.00000000	      0.00000000	      5.63873139	     11.83113300	     14.59471858	     43.67450533	     89.95437384	      0.00000000	      0.00000000
      1.41000000	     -2.54667374	     -1.54050815	      4.43765142	      0.04959835	      0.88719869	      1.03143937	     27.31315621	     -3.62511331	    -21.03587136	    -25.41279848	     -0.44353701	      4.20439696	     -9.84482302	     14.71882794	      4.11697878	      1.04987501	     11.41714338	    -27.42967850	     -0.47873820	     14.54981613	      2.32011851	     -6.78489936	     -4.02724266	      1.42255595	     -8.40310735	     -3.35966790	     -7.00674300	    -16.65347191	     25.36034267	     89.95437384	      0.00000000	      0.00000000	      5.75682574	     11.80377651	     14.43685313	     44.11570930	     89.95437384	      0.00000000	      0.00000000
      1.42000000	     -2.74971197	     -1.39824945	      4.44761518	      0.05618087	      0.88651678	      1.03183337	     27.72915824	     -3.65010794	    -21.31870561	    -24.18924853	     -0.42218203	      4.25368502	     -9.22093169	     14.54233547	      3.88254253	      0.95888987	     11.41470993	    -27.48987481	     -0.47978883	     14.55257210	      2.25176444	     -6.77203941	     -3.83321870	      1.29059572	     -8.36153531	     -3.46381222	     -6.98547689	    -16.60831589	     25.22311009	     89.95437384	      0.00000000	      0.00000000	      5.88902071	     11.68276912	     14.44835586	     44.48519876	     89.95437384	      0.00000000	      0.00000000
      1.43000000	     -2.79303197	     -1.37133874	      4.50565928	      0.06299738	      0.88606955	      1.03235369	     27.85548617	     -3.51885211	    -21.62995224	    -22.93128240	     -0.40022638	      4.34002309	     -8.37753933	     14.30184375	      3.51733519	      1.03046077	     11.33419853	    -27.63249146	     -0.48227796	     14.50823794	      2.25016035	     -6.77544600	     -3.78608822	      1.28276230	     -8.35233721	     -3.52635255	     -6.97158135	    -16.53959179	     25.03169298	     89.95437384	      0.00000000	      0.00000000	      6.00583166	     11.54373315	     14.54172652	     44.86571691	     89.95437384	      0.00000000	      0.00000000
